HIERARCHY
ROOT hip
{
  OFFSET 0 0 0
  CHANNELS 6 Xposition Yposition Zposition Zrotation Yrotation Xrotation
  JOINT abdomen
  {
    OFFSET 0 20.6881 -0.73152
    CHANNELS 3 Zrotation Xrotation Yrotation
    JOINT chest
    {
      OFFSET 0 11.7043 -0.48768
      CHANNELS 3 Zrotation Xrotation Yrotation
      JOINT neck
      {
        OFFSET 0 22.1894 -2.19456
        CHANNELS 3 Zrotation Xrotation Yrotation
        JOINT head
        {
          OFFSET -0.24384 7.07133 1.2192
          CHANNELS 3 Zrotation Xrotation Yrotation
          JOINT leftEye
          {
            OFFSET 4.14528 8.04674 8.04672
            CHANNELS 3 Zrotation Xrotation Yrotation
            End Site
            {
              OFFSET 1 0 0
            }
          }
          JOINT rightEye
          {
            OFFSET -3.6576 8.04674 8.04672
            CHANNELS 3 Zrotation Xrotation Yrotation
            End Site
            {
              OFFSET 1 0 0
            }
          }
        }
      }
      JOINT rCollar
      {
        OFFSET -2.68224 19.2634 -4.8768
        CHANNELS 3 Zrotation Xrotation Yrotation
        JOINT rShldr
        {
          OFFSET -8.77824 -1.95073 1.46304
          CHANNELS 3 Zrotation Xrotation Yrotation
          JOINT rForeArm
          {
            OFFSET -28.1742 -1.7115 0.48768
            CHANNELS 3 Zrotation Xrotation Yrotation
            JOINT rHand
            {
              OFFSET -22.5879 0.773209 7.07136
              CHANNELS 3 Zrotation Xrotation Yrotation
              JOINT rThumb1
              {
                OFFSET -1.2192 -0.487915 3.41376
                CHANNELS 3 Zrotation Xrotation Yrotation
                JOINT rThumb2
                {
                  OFFSET -3.37035 -0.52449 3.41376
                  CHANNELS 3 Zrotation Xrotation Yrotation
                  End Site
                  {
                    OFFSET -1.78271 -1.18214 1.43049
                  }
                }
              }
              JOINT rIndex1
              {
                OFFSET -7.75947 0.938293 5.60832
                CHANNELS 3 Zrotation Xrotation Yrotation
                JOINT rIndex2
                {
                  OFFSET -2.54057 -0.884171 1.56538
                  CHANNELS 3 Zrotation Xrotation Yrotation
                  End Site
                  {
                    OFFSET -1.62519 -0.234802 1.16502
                  }
                }
              }
              JOINT rMid1
              {
                OFFSET -8.24714 1.18213 3.41376
                CHANNELS 3 Zrotation Xrotation Yrotation
                JOINT rMid2
                {
                  OFFSET -3.10165 -0.590103 1.0647
                  CHANNELS 3 Zrotation Xrotation Yrotation
                  End Site
                  {
                    OFFSET -2.48547 -0.328903 0.83742
                  }
                }
              }
              JOINT rRing1
              {
                OFFSET -8.82822 0.546677 1.51678
                CHANNELS 3 Zrotation Xrotation Yrotation
                JOINT rRing2
                {
                  OFFSET -2.60934 -0.819778 -0.0198488
                  CHANNELS 3 Zrotation Xrotation Yrotation
                  End Site
                  {
                    OFFSET -2.33842 -0.294052 0.168128
                  }
                }
              }
              JOINT rPinky1
              {
                OFFSET -8.27202 -0.0477905 -0.4584
                CHANNELS 3 Zrotation Xrotation Yrotation
                JOINT rPinky2
                {
                  OFFSET -1.82734 -0.647385 -0.700984
                  CHANNELS 3 Zrotation Xrotation Yrotation
                  End Site
                  {
                    OFFSET -1.69225 -0.51767 -0.607171
                  }
                }
              }
            }
          }
        }
      }
      JOINT lCollar
      {
        OFFSET 2.68224 19.2634 -4.8768
        CHANNELS 3 Zrotation Xrotation Yrotation
        JOINT lShldr
        {
          OFFSET 8.77824 -1.95073 1.46304
          CHANNELS 3 Zrotation Xrotation Yrotation
          JOINT lForeArm
          {
            OFFSET 28.1742 -1.7115 0.48768
            CHANNELS 3 Zrotation Xrotation Yrotation
            JOINT lHand
            {
              OFFSET 22.5879 0.773209 7.07136
              CHANNELS 3 Zrotation Xrotation Yrotation
              JOINT lThumb1
              {
                OFFSET 1.2192 -0.487915 3.41376
                CHANNELS 3 Zrotation Xrotation Yrotation
                JOINT lThumb2
                {
                  OFFSET 3.37035 -0.52449 3.41376
                  CHANNELS 3 Zrotation Xrotation Yrotation
                  End Site
                  {
                    OFFSET 1.78271 -1.18214 1.43049
                  }
                }
              }
              JOINT lIndex1
              {
                OFFSET 7.75947 0.938293 5.60832
                CHANNELS 3 Zrotation Xrotation Yrotation
                JOINT lIndex2
                {
                  OFFSET 2.54057 -0.884171 1.56538
                  CHANNELS 3 Zrotation Xrotation Yrotation
                  End Site
                  {
                    OFFSET 1.62519 -0.234802 1.16502
                  }
                }
              }
              JOINT lMid1
              {
                OFFSET 8.24714 1.18213 3.41376
                CHANNELS 3 Zrotation Xrotation Yrotation
                JOINT lMid2
                {
                  OFFSET 3.10165 -0.590103 1.0647
                  CHANNELS 3 Zrotation Xrotation Yrotation
                  End Site
                  {
                    OFFSET 2.48547 -0.328903 0.83742
                  }
                }
              }
              JOINT lRing1
              {
                OFFSET 8.82822 0.546677 1.51678
                CHANNELS 3 Zrotation Xrotation Yrotation
                JOINT lRing2
                {
                  OFFSET 2.60934 -0.819778 -0.0198488
                  CHANNELS 3 Zrotation Xrotation Yrotation
                  End Site
                  {
                    OFFSET 2.33842 -0.294052 0.168128
                  }
                }
              }
              JOINT lPinky1
              {
                OFFSET 8.27202 -0.0477905 -0.4584
                CHANNELS 3 Zrotation Xrotation Yrotation
                JOINT lPinky2
                {
                  OFFSET 1.82734 -0.647385 -0.700984
                  CHANNELS 3 Zrotation Xrotation Yrotation
                  End Site
                  {
                    OFFSET 1.69225 -0.51767 -0.607171
                  }
                }
              }
            }
          }
        }
      }
    }
  }
  JOINT rButtock
  {
    OFFSET -8.77824 4.35084 1.2192
    CHANNELS 3 Zrotation Xrotation Yrotation
    JOINT rThigh
    {
      OFFSET 0 -1.70687 -2.19456
      CHANNELS 3 Zrotation Xrotation Yrotation
      JOINT rShin
      {
        OFFSET 0 -36.8199 0.73152
        CHANNELS 3 Zrotation Xrotation Yrotation
        JOINT rFoot
        {
          OFFSET 0.73152 -45.1104 -5.12064
          CHANNELS 3 Zrotation Xrotation Yrotation
          End Site
          {
            OFFSET -1.1221 -3.69964 12.103
          }
        }
      }
    }
  }
  JOINT lButtock
  {
    OFFSET 8.77824 4.35084 1.2192
    CHANNELS 3 Zrotation Xrotation Yrotation
    JOINT lThigh
    {
      OFFSET 0 -1.70687 -2.19456
      CHANNELS 3 Zrotation Xrotation Yrotation
      JOINT lShin
      {
        OFFSET 0 -36.8199 0.73152
        CHANNELS 3 Zrotation Xrotation Yrotation
        JOINT lFoot
        {
          OFFSET -0.73152 -45.1104 -5.12064
          CHANNELS 3 Zrotation Xrotation Yrotation
          End Site
          {
            OFFSET 1.1221 -3.69964 12.103
          }
        }
      }
    }
  }
}
MOTION
Frames:	6
Frame Time:	0.03333
0.0 0.0 0.0 0.0 0.0 0.0 0.0 0.0 0.0 0.0 0.0 0.0 0.0 0.0 0.0 0.0 0.0 0.0 0.0 0.0 0.0 0.0 0.0 0.0 0.0 0.0 0.0 0.0 0.0 0.0 0.0 0.0 0.0 0.0 0.0 0.0 0.0 0.0 0.0 0.0 0.0 0.0 0.0 0.0 0.0 0.0 0.0 0.0 0.0 0.0 0.0 0.0 0.0 0.0 0.0 0.0 0.0 0.0 0.0 0.0 0.0 0.0 0.0 0.0 0.0 0.0 0.0 0.0 0.0 0.0 0.0 0.0 0.0 0.0 0.0 0.0 0.0 0.0 0.0 0.0 0.0 0.0 0.0 0.0 0.0 0.0 0.0 0.0 0.0 0.0 0.0 0.0 0.0 0.0 0.0 0.0 0.0 0.0 0.0 0.0 0.0 0.0 0.0 0.0 0.0 0.0 0.0 0.0 0.0 0.0 0.0 0.0 0.0 0.0 0.0 0.0 0.0 0.0 0.0 0.0 0.0 0.0 0.0 0.0 0.0 0.0 0.0 0.0 0.0 0.0 0.0 0.0
-0.026600000000000002 67.0372 -0.4764 179.930111 75.694745 178.933852 0.138653 0.091972 174.39266 9.604849 2.832353 -71.593529 -15.861463 -12.171596 -63.730054 -27.761557 53.816928 -137.278634 110.258422 22.269838 -31.544566 -9.519437 -3.956895 45.064492 -48.228793 48.198741 137.270418 14.697659 8.441953 0.209567 -9.932901 -9.051507 31.317253 -179.543438 13.114118 -103.102995 -179.833345 -24.411788 -105.405486 -124.698654 22.363624 -77.678856 -162.128752 57.194466 -148.899005 -175.156622 -34.976411 39.406204 165.88449 47.027525 -170.835916 -143.728334 -60.853196 156.368657 82.866766 42.837663 -82.629721 179.4899 46.566762 -177.445818 -67.565069 -10.146025 8.323254 -95.908691 17.738602 -98.862866 94.295202 -45.366151 -150.311906 152.025726 42.673418 -149.211193 -137.63458 -77.371876 67.28454 -15.710945 -7.511327 65.845016 -175.748179 -28.377449 -55.235826 131.437508 -12.538212 -73.728482 111.973972 32.459921 149.028252 -54.16056 -53.174788 -179.22129 -31.247139 6.007577 -134.162743 -4.88623 27.613782 -175.442374 96.786847 28.068645 94.560266 124.603683 -32.564088 -52.896553 -47.96971 17.001601 85.609868 38.196927 30.301058 -88.895632 43.066113 53.988353 124.000225 -15.593915 63.718926 43.6619 6.018877 -2.792094 88.263962 -48.147703 53.032106 63.8859 -67.047595 -4.387022 -82.896103 5.100552 65.003513 165.014188 4.846835 -2.266098 85.312335 -71.042785 -15.491267 89.7022
-2.4362000000000004 65.3409 -3.4433 144.720373 86.313272 156.006952 -2.128536 -7.845211 -55.880729 -4.873779 2.457441 52.1811 11.336562 29.129694 119.256806 -29.480066 34.326172 -134.364951 25.21875 16.871189 67.08521 158.28918 -7.742737 38.874864 21.028071 -58.793847 7.316909 49.667895 38.392832 -24.311654 176.543118 0.559825 66.223529 -168.011518 -21.465185 154.787696 11.558904 2.350966 17.775068 -97.473354 45.769398 72.780162 -100.908088 -72.169459 -140.598097 138.638362 77.617898 -118.207327 47.407948 -49.895214 5.895199 -153.552113 -35.137271 105.295976 69.17394 -1.962986 1.752864 -33.964834 -86.278368 3.824254 -112.597358 34.82939 -151.087456 -141.721665 21.640613 -91.175852 150.361015 -32.901538 -172.466596 -139.162036 22.130423 151.512551 -179.949603 -6.116016 -48.335725 -171.057372 -13.348594 -143.288347 179.020317 -6.008906 -79.333549 -69.667526 -13.372458 -64.045429 143.129157 58.014867 -79.506041 -13.954976 -14.425443 -58.469564 -21.837137 22.131254 -79.714766 -175.81161 -3.923853 99.275914 133.225176 -3.118099 -166.476252 106.015909 26.284448 -21.400048 -80.361215 -73.048928 1.65752 88.760515 -48.061947 6.780759 -1.511878 82.029242 -178.490756 150.403466 37.524838 -71.023475 -61.047391 10.915648 106.012694 -118.932647 -0.258159 35.950769 84.971015 12.277358 76.043099 -77.593066 35.182579 -28.095397 -39.535561 54.822215 -100.045012 106.083858 -6.809025 172.318279
-5.7557 57.0819 -6.9129 163.021226 80.391665 170.934151 -11.777881 10.223343 108.504197 -11.206973 -3.818865 -107.487633 15.100546 35.821248 115.841385 -42.865047 27.635664 -131.753425 -51.247872 -8.429872 17.470791 -7.831655 -4.87357 63.738178 -109.803499 68.780139 115.459108 69.513188 -64.704397 82.498384 140.779919 48.413959 93.282584 175.421993 4.043128 138.973344 -10.592953 -12.689648 -4.772751 178.255628 -53.010864 121.565603 -16.599552 37.871501 0.379455 -47.569543 -19.885575 -9.26777 -152.212393 -15.48325 146.74435 -8.364242 57.220762 43.04974 66.408406 -42.168466 28.987485 -18.143528 -8.019071 35.584607 -115.684822 29.808191 -168.176806 61.792512 -49.144238 -9.150232 143.80731 29.927487 -140.527612 69.522842 19.767434 -24.76867 -2.551489 10.709915 135.450728 175.671943 -9.130063 -139.676272 -174.620299 9.949275 -71.145957 127.349775 -19.12154 -16.64445 13.147462 -37.926091 2.336903 175.260599 47.650505 165.304807 -14.100852 -6.678699 -28.045404 -33.408386 9.483011 65.836958 106.673443 23.900492 -127.009174 56.948766 6.817863 179.680827 130.441184 11.954019 162.886734 135.516531 -31.7305 164.819659 -34.413773 -6.022993 -14.21268 -13.297087 -50.384572 27.451815 84.842044 35.041254 -166.642268 12.366918 -14.908374 81.226693 157.536049 81.216981 13.462475 -135.295821 29.366605 -70.596074 -65.499188 49.831665 130.401291 150.949628 -42.72289 34.237951
-8.0201 57.8727 -8.0265 177.830877 79.554384 179.850758 -8.710311 24.708125 -63.98714 19.106444 2.047493 72.37225 6.871875 20.840331 87.145067 -40.003957 4.904418 -114.992499 -62.38457 6.465945 -10.660279 -28.039234 -1.237503 4.953229 -119.192195 -61.722795 -141.224426 -15.920715 -48.024727 -54.896457 17.133946 -42.621855 -114.967192 152.562085 -12.744149 132.306436 -18.505251 -14.291804 -8.309342 -148.219559 -3.58898 108.443273 -26.65674 21.263208 -2.150913 -72.622121 -2.488264 0.371717 12.193151 -23.539598 6.30943 -72.114428 69.075588 7.769319 -145.955314 30.736518 114.604821 173.845604 -5.944185 155.89407 -115.603425 62.519626 171.451764 -7.322019 -27.733627 -60.279906 -2.587572 -12.02115 -5.690005 81.033711 14.453314 -156.950996 143.798618 -79.09612 47.685717 13.966344 -12.587802 -7.667964 -165.879831 -7.613059 -92.951281 -154.629251 2.199701 -106.483774 7.368496 -72.258402 32.807136 10.169673 29.126436 4.563163 159.430061 58.903859 -136.810925 -13.003319 -26.535181 -42.561696 42.880041 -62.684478 68.865241 110.886057 18.019374 -66.810263 19.63863 -17.42584 34.506258 -7.344864 -59.75405 -4.615135 41.508416 85.250419 115.715952 163.0948 31.573237 -117.399412 -80.485444 -27.144975 28.841247 7.422495 -6.176035 59.578367 -88.929214 -13.64037 -33.277565 116.520435 -7.062384 -104.05652 -83.200128 -14.976104 -39.230951 175.214931 11.570278 -148.009812
-9.222800000000001 59.6515 -7.9359 -179.461871 77.56398 -176.350333 -6.721181 17.602434 -156.777974 -6.365052 12.029474 163.143035 1.183782 22.601564 103.750177 -34.7416 16.526527 -132.339648 -31.440282 10.725893 -36.889377 -16.370217 2.750279 -18.949837 -133.244333 -61.352046 -154.727838 -53.536961 -54.189149 -77.416551 -0.29455 -15.221975 -124.730777 148.485513 -24.803415 125.862478 -176.571952 4.123904 60.417157 -144.911654 -35.163985 59.630693 -1.423507 -16.794733 -1.03698 151.639185 -9.130793 69.104543 -2.615069 -12.000436 20.503907 -148.156665 -44.247835 -150.768401 -98.38358 16.76484 24.971312 -115.491306 -33.374341 98.702123 26.139777 42.845813 29.522428 5.317496 35.279529 -11.746173 -13.291598 -42.829179 -0.13818 -85.889219 54.332904 9.187013 173.42046 -19.806314 -44.24858 161.702484 0.655343 -158.861638 171.514823 13.171893 -110.882934 -172.329447 -78.079158 161.689645 159.807201 -3.47326 -126.48292 -5.854637 4.543268 -4.634131 172.599762 -6.762661 -167.323752 121.602532 80.216797 -96.664181 -39.238357 49.856249 32.691656 53.799643 1.305826 26.477172 160.060504 27.273732 112.060994 1.775885 24.576685 17.849238 -10.531188 -22.018851 -14.565023 -17.23854 -45.287107 165.785157 1.37738 -83.133888 -87.223431 -9.36112 59.239021 -79.538636 7.556353 40.919442 79.051905 -77.907858 -37.419075 3.587641 87.138716 11.409473 152.052553 159.237476 -1.361218 -139.508532
